<mxfile host="app.diagrams.net" agent="Mozilla/5.0 (Windows NT 10.0; Win64; x64) AppleWebKit/537.36 (KHTML, like Gecko) Chrome/127.0.0.0 Safari/537.36" version="24.7.8">
  <diagram id="6a731a19-8d31-9384-78a2-239565b7b9f0" name="Page-1">
    <mxGraphModel dx="1242" dy="830" grid="1" gridSize="10" guides="1" tooltips="1" connect="1" arrows="1" fold="1" page="1" pageScale="1" pageWidth="827" pageHeight="1169" background="none" math="0" shadow="0">
      <root>
        <mxCell id="0" />
        <mxCell id="1" parent="0" />
        <mxCell id="bDuuhZXTY7HlAwmE0kFs-2276" value="Docker Containers" style="rounded=1;whiteSpace=wrap;html=1;labelPosition=left;verticalLabelPosition=middle;align=right;verticalAlign=middle;" vertex="1" parent="1">
          <mxGeometry x="1004.5" y="400" width="620" height="430" as="geometry" />
        </mxCell>
        <mxCell id="2109" value="Internet" style="shape=mxgraph.cisco.storage.cloud;html=1;dashed=0;strokeColor=#23445D;fillColor=#ffffff;strokeWidth=2;fontFamily=Helvetica;fontSize=24;fontColor=#23445D;align=center;fontStyle=1" parent="1" vertex="1">
          <mxGeometry x="847" y="87" width="186" height="106" as="geometry" />
        </mxCell>
        <mxCell id="2138" value="" style="shape=mxgraph.cisco.routers.router;html=1;dashed=0;fillColor=#10739E;strokeColor=#ffffff;strokeWidth=2;verticalLabelPosition=bottom;verticalAlign=top;fontFamily=Helvetica;fontSize=36;fontColor=#FFB366" parent="1" vertex="1">
          <mxGeometry x="1020" y="122" width="78" height="53" as="geometry" />
        </mxCell>
        <mxCell id="2170" value="" style="elbow=horizontal;endArrow=none;html=1;strokeColor=#23445D;endFill=0;strokeWidth=4;rounded=1;" parent="1" source="bDuuhZXTY7HlAwmE0kFs-2258" edge="1">
          <mxGeometry width="100" height="100" relative="1" as="geometry">
            <mxPoint x="1207.8313953488373" y="252" as="sourcePoint" />
            <mxPoint x="1100" y="170" as="targetPoint" />
          </mxGeometry>
        </mxCell>
        <mxCell id="2233" value="Access 1" style="rounded=1;whiteSpace=wrap;html=1;strokeColor=none;fillColor=none;fontSize=14;fontColor=#23445D;align=center;fontStyle=1" parent="1" vertex="1">
          <mxGeometry x="142" y="1130" width="93" height="19" as="geometry" />
        </mxCell>
        <mxCell id="bDuuhZXTY7HlAwmE0kFs-2278" style="edgeStyle=none;curved=1;rounded=0;orthogonalLoop=1;jettySize=auto;html=1;exitX=0.5;exitY=0.96;exitDx=0;exitDy=0;exitPerimeter=0;entryX=0.5;entryY=0;entryDx=0;entryDy=0;fontSize=12;shape=link;" edge="1" parent="1" source="bDuuhZXTY7HlAwmE0kFs-2258" target="bDuuhZXTY7HlAwmE0kFs-2276">
          <mxGeometry relative="1" as="geometry" />
        </mxCell>
        <mxCell id="bDuuhZXTY7HlAwmE0kFs-2258" value="CapsuleCorp Server&lt;br&gt;Running OpenMediaVault" style="shape=mxgraph.cisco.computers_and_peripherals.ibm_mainframe;sketch=0;html=1;pointerEvents=1;dashed=0;fillColor=#036897;strokeColor=#ffffff;strokeWidth=2;verticalLabelPosition=top;verticalAlign=bottom;align=left;outlineConnect=0;labelPosition=right;" vertex="1" parent="1">
          <mxGeometry x="1260" y="220" width="109" height="118" as="geometry" />
        </mxCell>
        <mxCell id="bDuuhZXTY7HlAwmE0kFs-2270" value="Plex - Media Server" style="aspect=fixed;sketch=0;html=1;dashed=0;whitespace=wrap;verticalLabelPosition=bottom;verticalAlign=top;fillColor=#2875E2;strokeColor=#ffffff;points=[[0.005,0.63,0],[0.1,0.2,0],[0.9,0.2,0],[0.5,0,0],[0.995,0.63,0],[0.72,0.99,0],[0.5,1,0],[0.28,0.99,0]];shape=mxgraph.kubernetes.icon2;prIcon=api" vertex="1" parent="1">
          <mxGeometry x="1384.5" y="612" width="50" height="48" as="geometry" />
        </mxCell>
        <mxCell id="bDuuhZXTY7HlAwmE0kFs-2271" value="Jellyfin - Media Server" style="aspect=fixed;sketch=0;html=1;dashed=0;whitespace=wrap;verticalLabelPosition=bottom;verticalAlign=top;fillColor=#2875E2;strokeColor=#ffffff;points=[[0.005,0.63,0],[0.1,0.2,0],[0.9,0.2,0],[0.5,0,0],[0.995,0.63,0],[0.72,0.99,0],[0.5,1,0],[0.28,0.99,0]];shape=mxgraph.kubernetes.icon2;prIcon=api" vertex="1" parent="1">
          <mxGeometry x="1384.5" y="540" width="50" height="48" as="geometry" />
        </mxCell>
        <mxCell id="bDuuhZXTY7HlAwmE0kFs-2273" value="Syncthing - Network File Syncing" style="aspect=fixed;sketch=0;html=1;dashed=0;whitespace=wrap;verticalLabelPosition=bottom;verticalAlign=top;fillColor=#2875E2;strokeColor=#ffffff;points=[[0.005,0.63,0],[0.1,0.2,0],[0.9,0.2,0],[0.5,0,0],[0.995,0.63,0],[0.72,0.99,0],[0.5,1,0],[0.28,0.99,0]];shape=mxgraph.kubernetes.icon2;prIcon=api" vertex="1" parent="1">
          <mxGeometry x="1384.5" y="470" width="50" height="48" as="geometry" />
        </mxCell>
        <mxCell id="bDuuhZXTY7HlAwmE0kFs-2275" value="Homarr - Dashboard" style="aspect=fixed;sketch=0;html=1;dashed=0;whitespace=wrap;verticalLabelPosition=bottom;verticalAlign=top;fillColor=#2875E2;strokeColor=#ffffff;points=[[0.005,0.63,0],[0.1,0.2,0],[0.9,0.2,0],[0.5,0,0],[0.995,0.63,0],[0.72,0.99,0],[0.5,1,0],[0.28,0.99,0]];shape=mxgraph.kubernetes.icon2;prIcon=api" vertex="1" parent="1">
          <mxGeometry x="1524.5" y="540" width="50" height="48" as="geometry" />
        </mxCell>
        <mxCell id="bDuuhZXTY7HlAwmE0kFs-2279" style="edgeStyle=none;curved=1;rounded=0;orthogonalLoop=1;jettySize=auto;html=1;exitX=0.1;exitY=0.2;exitDx=0;exitDy=0;exitPerimeter=0;entryX=0.5;entryY=1;entryDx=0;entryDy=0;entryPerimeter=0;fontSize=12;startSize=8;endSize=8;" edge="1" parent="1" source="bDuuhZXTY7HlAwmE0kFs-2259" target="2138">
          <mxGeometry relative="1" as="geometry" />
        </mxCell>
        <mxCell id="bDuuhZXTY7HlAwmE0kFs-2280" value="VPN Traffic" style="edgeLabel;html=1;align=center;verticalAlign=middle;resizable=0;points=[];fontSize=12;" vertex="1" connectable="0" parent="bDuuhZXTY7HlAwmE0kFs-2279">
          <mxGeometry x="-0.0135" y="-7" relative="1" as="geometry">
            <mxPoint as="offset" />
          </mxGeometry>
        </mxCell>
        <mxCell id="bDuuhZXTY7HlAwmE0kFs-2266" value="" style="rounded=1;whiteSpace=wrap;html=1;" vertex="1" parent="1">
          <mxGeometry x="1074.5" y="498.26" width="231" height="281.74" as="geometry" />
        </mxCell>
        <mxCell id="bDuuhZXTY7HlAwmE0kFs-2268" style="edgeStyle=none;curved=1;rounded=0;orthogonalLoop=1;jettySize=auto;html=1;fontSize=12;startSize=8;endSize=8;entryX=0.995;entryY=0.63;entryDx=0;entryDy=0;entryPerimeter=0;" edge="1" parent="1" target="bDuuhZXTY7HlAwmE0kFs-2259">
          <mxGeometry relative="1" as="geometry">
            <mxPoint x="1230.25" y="498.2562277580071" as="sourcePoint" />
            <mxPoint x="1185.5" y="443.0960854092527" as="targetPoint" />
            <Array as="points">
              <mxPoint x="1238" y="432.06405693950177" />
            </Array>
          </mxGeometry>
        </mxCell>
        <mxCell id="bDuuhZXTY7HlAwmE0kFs-2269" value="All traffic routed through" style="edgeLabel;html=1;align=center;verticalAlign=middle;resizable=0;points=[];fontSize=12;" vertex="1" connectable="0" parent="bDuuhZXTY7HlAwmE0kFs-2268">
          <mxGeometry x="-0.571" y="4" relative="1" as="geometry">
            <mxPoint x="25" y="-10" as="offset" />
          </mxGeometry>
        </mxCell>
        <mxCell id="bDuuhZXTY7HlAwmE0kFs-2259" value="Gluetun - VPN Service" style="aspect=fixed;sketch=0;html=1;dashed=0;whitespace=wrap;verticalLabelPosition=bottom;verticalAlign=top;fillColor=#2875E2;strokeColor=#ffffff;points=[[0.005,0.63,0],[0.1,0.2,0],[0.9,0.2,0],[0.5,0,0],[0.995,0.63,0],[0.72,0.99,0],[0.5,1,0],[0.28,0.99,0]];shape=mxgraph.kubernetes.icon2;prIcon=api" vertex="1" parent="1">
          <mxGeometry x="1109.5" y="410" width="50" height="48" as="geometry" />
        </mxCell>
        <mxCell id="bDuuhZXTY7HlAwmE0kFs-2260" value="Prowlarr - Indexing" style="aspect=fixed;sketch=0;html=1;dashed=0;whitespace=wrap;verticalLabelPosition=bottom;verticalAlign=top;fillColor=#2875E2;strokeColor=#ffffff;points=[[0.005,0.63,0],[0.1,0.2,0],[0.9,0.2,0],[0.5,0,0],[0.995,0.63,0],[0.72,0.99,0],[0.5,1,0],[0.28,0.99,0]];shape=mxgraph.kubernetes.icon2;prIcon=api" vertex="1" parent="1">
          <mxGeometry x="1109.5" y="519.2170818505338" width="50" height="48" as="geometry" />
        </mxCell>
        <mxCell id="bDuuhZXTY7HlAwmE0kFs-2261" value="Sonarr - TV" style="aspect=fixed;sketch=0;html=1;dashed=0;whitespace=wrap;verticalLabelPosition=bottom;verticalAlign=top;fillColor=#2875E2;strokeColor=#ffffff;points=[[0.005,0.63,0],[0.1,0.2,0],[0.9,0.2,0],[0.5,0,0],[0.995,0.63,0],[0.72,0.99,0],[0.5,1,0],[0.28,0.99,0]];shape=mxgraph.kubernetes.icon2;prIcon=api" vertex="1" parent="1">
          <mxGeometry x="1219.5" y="618.5053380782919" width="50" height="48" as="geometry" />
        </mxCell>
        <mxCell id="bDuuhZXTY7HlAwmE0kFs-2262" value="Radarr - Movies" style="aspect=fixed;sketch=0;html=1;dashed=0;whitespace=wrap;verticalLabelPosition=bottom;verticalAlign=top;fillColor=#2875E2;strokeColor=#ffffff;points=[[0.005,0.63,0],[0.1,0.2,0],[0.9,0.2,0],[0.5,0,0],[0.995,0.63,0],[0.72,0.99,0],[0.5,1,0],[0.28,0.99,0]];shape=mxgraph.kubernetes.icon2;prIcon=api" vertex="1" parent="1">
          <mxGeometry x="1109.5" y="618.5053380782919" width="50" height="48" as="geometry" />
        </mxCell>
        <mxCell id="bDuuhZXTY7HlAwmE0kFs-2263" value="Jackett - Indexer API" style="aspect=fixed;sketch=0;html=1;dashed=0;whitespace=wrap;verticalLabelPosition=bottom;verticalAlign=top;fillColor=#2875E2;strokeColor=#ffffff;points=[[0.005,0.63,0],[0.1,0.2,0],[0.9,0.2,0],[0.5,0,0],[0.995,0.63,0],[0.72,0.99,0],[0.5,1,0],[0.28,0.99,0]];shape=mxgraph.kubernetes.icon2;prIcon=api" vertex="1" parent="1">
          <mxGeometry x="1219.5" y="519.2170818505338" width="50" height="48" as="geometry" />
        </mxCell>
        <mxCell id="bDuuhZXTY7HlAwmE0kFs-2281" value="Qbittorrent" style="aspect=fixed;sketch=0;html=1;dashed=0;whitespace=wrap;verticalLabelPosition=bottom;verticalAlign=top;fillColor=#2875E2;strokeColor=#ffffff;points=[[0.005,0.63,0],[0.1,0.2,0],[0.9,0.2,0],[0.5,0,0],[0.995,0.63,0],[0.72,0.99,0],[0.5,1,0],[0.28,0.99,0]];shape=mxgraph.kubernetes.icon2;prIcon=api" vertex="1" parent="1">
          <mxGeometry x="1109.5" y="699.9953380782919" width="50" height="48" as="geometry" />
        </mxCell>
        <mxCell id="bDuuhZXTY7HlAwmE0kFs-2282" value="Flaresolver" style="aspect=fixed;sketch=0;html=1;dashed=0;whitespace=wrap;verticalLabelPosition=bottom;verticalAlign=top;fillColor=#2875E2;strokeColor=#ffffff;points=[[0.005,0.63,0],[0.1,0.2,0],[0.9,0.2,0],[0.5,0,0],[0.995,0.63,0],[0.72,0.99,0],[0.5,1,0],[0.28,0.99,0]];shape=mxgraph.kubernetes.icon2;prIcon=api" vertex="1" parent="1">
          <mxGeometry x="1216" y="699.9953380782919" width="50" height="48" as="geometry" />
        </mxCell>
      </root>
    </mxGraphModel>
  </diagram>
</mxfile>
